<?xml version="1.0" encoding="UTF-8"?>
<svg width="595.28pt" version="1.1" xmlns="http://www.w3.org/2000/svg" height="841.89pt" viewBox="0 0 595.28 841.89" xmlns:xlink="http://www.w3.org/1999/xlink">
 <defs>
  <clipPath id="Clip0">
   <path d="M0 0 L512 0 L512 525.248 L0 525.248 L0 0 Z" transform="translate(41, 177.5)"/>
  </clipPath>
 </defs>
 <g>
  <g>
   <path style="fill:#ffffff; fill-rule:evenodd;stroke:none;" d="M162.56 87.54 L170.08 79.09 C164.586 61.531 164.571 42.2 170.44 24.35 C127.22 48.095 72.503 38.633 39.84 0 C15.58 19.24 0 48.97 0 82.27 L0 232.27 C0 240.55 6.72 247.27 15 247.27 L138.58 247.27 C136.91 242.58 136 237.53 136 232.27 L136 157.27 C136 131.55 145.43 106.78 162.56 87.54 L162.56 87.54 Z" transform="translate(41, 455.478)"/>
   <path style="fill:#ffffff; fill-rule:evenodd;stroke:none;" d="M75 0 C116.421 0 150 33.5786 150 75 C150 116.421 116.421 150 75 150 C33.5786 150 0 116.421 0 75 C0 33.5786 33.5786 0 75 0 Z" transform="translate(86, 312.748)"/>
   <path style="fill:#ffffff; fill-rule:evenodd;stroke:none;" d="M130.6 0 C97.878 38.703 43.123 48.061 0 24.34 C5.85999 42.226 5.86099 61.507 0.359985 79.09 L7.87997 87.54 C25.01 106.78 34.44 131.55 34.44 157.27 L34.44 232.27 C34.44 237.53 33.53 242.58 31.86 247.27 L155.44 247.27 C163.72 247.27 170.44 240.55 170.44 232.27 L170.44 82.27 C170.44 48.97 154.86 19.24 130.6 3.05176e-05 L130.6 0 Z" transform="translate(382.56, 455.478)"/>
   <path style="fill:#ffffff; fill-rule:evenodd;stroke:none;" d="M75 0 C116.421 0 150 33.5786 150 75 C150 116.421 116.421 150 75 150 C33.5786 150 0 116.421 0 75 C0 33.5786 33.5786 0 75 0 Z" transform="translate(358, 312.748)"/>
   <path style="fill:#ffffff; fill-rule:evenodd;stroke:none;" d="M90 34.79 C61.16 34.79 35.45 21.16 18.97 0 C7.17 13.26 0 30.7 0 49.79 L0 124.79 C0 133.07 6.72 139.79 15 139.79 L165 139.79 C173.28 139.79 180 133.07 180 124.79 L180 49.79 C180 30.7 172.83 13.26 161.03 0 C144.55 21.16 118.84 34.79 90 34.79 Z" transform="translate(207, 562.958)"/>
   <path style="fill:#ffffff; fill-rule:evenodd;stroke:none;" d="M60 0 C93.1371 0 120 26.8629 120 60 C120 93.1371 93.1371 120 60 120 C26.8629 120 0 93.1371 0 60 C0 26.8629 26.8629 0 60 0 Z" transform="translate(237, 447.748)"/>
   <path style="fill:#ffffff; fill-rule:evenodd;stroke:none;" d="M37.319 136.242 C54.445 152.07 71.422 162.582 72.136 163.022 C76.959 165.99 83.04 165.99 87.863 163.022 C88.578 162.582 105.554 152.07 122.68 136.242 C147.444 113.356 160 91.107 160 70.114 C160 22.438 112.59 0.059 80 26.544 C47.337 0 0 22.564 0 70.114 C0 91.107 12.556 113.356 37.319 136.242 Z" transform="translate(217, 177.5)"/>
  </g>
 </g>
</svg>
