<?xml version="1.0" encoding="UTF-8"?>
<svg width="595.28pt" version="1.1" xmlns="http://www.w3.org/2000/svg" height="841.89pt" viewBox="0 0 595.28 841.89" xmlns:xlink="http://www.w3.org/1999/xlink">

 <g id="Background">
  <g id="Copy of Group334" clip-path="url(#Clip0)">
   <g id="Copy of Group331" clip-path="url(#Clip1)">
    <path style="fill:none; fill-rule:evenodd;stroke:none;" d="M0 0 L668 0 L668 668 L0 668 L0 0 Z" transform="translate(-37.25, 67.25)"/>
    <path style="fill:none; stroke-width:1; stroke-linecap:butt; stroke-linejoin:miter; stroke-dasharray:none;" d="M0 0 L667 0 L667 667 L0 667 L0 0 Z" transform="translate(-36.75, 67.75)"/>
   </g>
   <g>
    <g>
     <path style="fill:#ffffff; fill-rule:evenodd;stroke:none;" d="M40.9324 158.231 C40.9324 129.639 41.0382 101.094 40.8356 72.5245 C40.8086 68.1066 43.2742 60.9955 35.5507 60.9269 C27.1021 60.8255 29.7997 68.3059 29.7457 72.9861 C29.4912 93.476 29.7097 113.974 29.6128 134.473 C29.5475 145.614 23.9271 151.997 14.6859 151.84 C5.80052 151.688 0.186896 145.462 0.137357 134.948 C0 106.998 0 79.0512 0.137357 51.1047 C0.281469 38.4442 6.44677 26.609 16.7395 19.2345 C29.5745 8.65687 45.6386 2.77979 62.27 2.57713 C70.4597 2.57713 78.8024 9.76699 86.6791 14.3831 C87.8274 15.0564 87.1677 19.6128 86.634 22.2226 C83.2902 38.6311 79.9936 55.0577 76.1206 71.3502 C74.2268 76.9807 75.9652 83.1967 80.5025 87.0292 C100.419 105.997 94.2269 105.799 114.166 86.9966 C118.519 83.3859 120.284 77.5189 118.649 72.1057 C114.79 54.8539 111.077 37.5604 107.918 20.1701 C107.819 16.8994 109.188 13.7548 111.649 11.5977 C122.128 2.49044 136.817 0 149.712 5.14188 C166.143 10.966 181.813 17.6628 190.125 34.1445 C192.752 39.7367 194.124 45.8356 194.146 52.0144 C194.565 79.3338 194.401 106.671 194.299 133.995 C194.259 145.524 189.093 151.694 179.888 151.823 C170.397 151.957 165.177 145.584 165.13 133.441 C165.051 113.57 165.13 93.6944 165.103 73.8227 C165.508 71.3773 165.4 68.8733 164.786 66.4718 C163.628 64.1289 160.962 62.5425 158.951 60.624 C157.254 62.4682 154.837 64.0692 154.063 66.25 C153.507 68.9814 153.392 71.7837 153.725 74.5511 C153.725 130.449 153.592 186.345 153.813 242.243 C153.853 252.439 151.854 260.588 141.28 264.627 C129.802 269.013 113.421 267.265 107.343 259.352 C104.387 255.104 102.781 250.064 102.732 244.89 C102.308 216.325 102.52 187.752 102.502 159.183 C102.813 156.724 102.712 154.231 102.207 151.804 C101.502 149.872 98.8453 146.911 97.8117 147.193 C95.4249 147.974 93.4636 149.703 92.3895 151.975 C91.768 154.698 91.6352 157.508 91.9977 160.277 C91.9977 188.223 92.0427 216.174 91.9977 244.12 C91.9662 259.587 83.1258 267.261 65.9426 266.979 C49.2256 266.702 40.9932 259.14 40.9752 243.921 C40.9189 215.365 40.9031 186.8 40.9324 158.231 Z" transform="translate(188.147, 417.263)"/>
     <path style="fill:#ffffff; fill-rule:evenodd;stroke:none;" d="M0 14.1072 C9.01603 10.7915 16.0618 8.47673 22.8823 5.62601 C36.3433 0 47.6471 4.90657 58.12 12.8339 C59.944 14.9438 60.7186 17.7618 60.2322 20.5079 C57.3409 35.7263 53.9701 50.8885 50.7455 66.0654 C48.9014 74.8269 59.8899 92.9142 68.5006 95.238 C69.1019 95.3911 69.7233 95.4541 70.3448 95.4226 C76.5011 95.211 91.5203 76.3863 90.2616 70.3122 C86.983 54.5172 83.7675 38.7043 80.1805 22.9792 C78.4151 18.0658 80.6218 12.6098 85.3077 10.3063 C97.787 1.36456 109.98 2.67396 123.081 7.35536 C137.839 12.6267 151.009 19.8852 157.778 34.8403 C159.658 39.4249 160.591 44.3427 160.519 49.2977 C160.778 75.0724 160.699 100.859 160.597 126.639 C160.557 137.342 155.756 142.751 146.877 142.65 C138.116 142.553 133.504 137.116 133.439 126.307 C133.32 108.602 133.729 90.8853 133.2 73.1989 C133.038 67.8589 137.195 58.0863 127.792 58.3407 C118.911 58.5805 122.964 68.1955 122.926 73.5592 C122.617 125.121 122.759 176.679 122.732 228.246 C122.732 243.205 115.294 250.151 99.3137 250.326 C82.8871 250.492 74.9744 243.372 74.9407 228.168 C74.8799 201.458 75.0735 174.743 74.7155 148.033 C74.6795 144.768 72.0674 138.884 70.3628 138.777 C63.7922 138.366 65.1928 144.218 65.1793 148.286 C65.0915 175.31 65.1793 202.334 65.1095 229.358 C65.0825 243.437 57.3567 250.23 41.5899 250.317 C25.8231 250.405 17.7101 243.631 17.6087 229.801 C17.4804 213.028 17.683 196.252 17.5119 179.478 C16.6968 175.153 19.0994 170.865 23.2156 169.305 C31.117 165.69 35.9515 157.554 35.3435 148.885 C35.4043 119.371 35.634 89.8563 35.2017 60.3425 C34.9472 43.0119 24.9585 30.9155 11.4794 21.3005 C8.49137 19.1985 5.28037 17.4139 0 14.1072 Z" transform="translate(355.792, 405.395)"/>
     <path style="fill:#ffffff; fill-rule:evenodd;stroke:none;" d="M160.185 17.8193 C153.73 22.4309 148.463 25.6959 143.768 29.6432 C132.32 38.6041 125.733 52.4118 125.972 66.9469 C126.13 94.898 126.064 122.853 125.972 150.805 C125.328 160.351 130.415 169.369 138.918 173.757 C141.588 175.835 143.218 178.976 143.38 182.357 C143.795 199.743 143.38 217.142 143.68 234.528 C144.741 243.008 138.857 250.791 130.408 252.084 C123.482 253.437 116.362 253.437 109.435 252.084 C101.005 250.758 95.1366 242.996 96.1589 234.523 C96.4134 207.817 96.2513 181.106 96.2468 154.396 C96.5372 151.936 96.4314 149.444 95.9338 147.017 C95.22 145.015 93.0605 143.526 91.5428 141.816 C89.7392 143.563 86.7466 145.09 86.3818 147.096 C85.8482 151.719 85.7243 156.379 86.0125 161.023 C86.0125 185.247 86.0643 209.477 85.972 233.697 C85.936 247.158 78.2282 253.73 62.7294 253.859 C46.7554 253.993 38.6761 247.279 38.6514 233.523 C38.5951 181.037 38.5951 128.55 38.6514 76.0643 C38.9891 73.9206 38.9418 71.7353 38.5095 69.6085 C37.0504 66.6959 35.3345 63.9183 33.3868 61.3074 C31.5741 63.9679 28.2505 66.5833 28.1627 69.2899 C27.6786 85.7344 27.9285 102.203 27.924 118.666 C27.924 123.32 28.0906 127.991 27.8407 132.64 C27.7664 140.185 21.5876 146.242 14.0419 146.167 C6.74401 146.095 0.792618 140.301 0.522407 133.009 C0.0112588 123.717 0.33326 114.378 0.324253 105.062 C0.324253 88.6032 0.535918 72.1361 0.263455 55.6814 C0 40.3154 5.94013 27.6155 19.1714 20.7071 C31.3107 14.06 44.4992 9.53731 58.1628 7.33397 C65.2739 6.38373 73.6617 13.5139 81.0587 17.7101 C82.2206 18.3653 81.6396 22.9398 81.115 25.5495 C78.2102 40.1499 75.6229 54.8471 71.7995 69.2167 C69.4621 76.0373 71.7364 83.5885 77.4491 87.9862 C92.7678 102.453 89.3519 102.642 104.52 88.2677 C110.453 83.6628 112.802 75.7952 110.368 68.6909 C106.526 54.3213 104.189 39.5645 100.894 25.0373 C99.6289 20.9109 101.516 16.4716 105.364 14.5182 C124.414 0 141.482 9.76811 160.185 17.8193 Z" transform="translate(53.9243, 401.835)"/>
     <path style="fill:#ffffff; fill-rule:evenodd;stroke:none;" d="M118.722 59.2245 C118.816 91.9831 92.3355 118.615 59.5792 118.709 C26.8207 118.804 0.186896 92.3242 0.092322 59.5657 C0 26.8083 26.4784 0.175637 59.2369 0.0810632 C59.2594 0.0810632 59.2842 0.0810632 59.3067 0.0810632 C92.0405 0 118.64 26.4694 118.722 59.202 C118.722 59.2099 118.722 59.2167 118.722 59.2245 Z" transform="translate(226.006, 295.896)"/>
     <path style="fill:#ffffff; fill-rule:evenodd;stroke:none;" d="M56.1227 0.210539 C86.6836 0.587708 111.151 25.6678 110.775 56.2286 C110.399 86.7883 85.319 111.257 54.7582 110.881 C24.391 110.506 0 85.7288 0.101329 55.3605 C0.310742 24.6916 25.3435 0 56.0124 0.209413 C56.0507 0.209413 56.0867 0.210539 56.1227 0.210539 Z" transform="translate(89.3287, 293.248)"/>
     <path style="fill:#ffffff; fill-rule:evenodd;stroke:none;" d="M55.7084 110.809 C25.1453 110.941 0.263455 86.2715 0.130602 55.7084 C0 25.1465 24.668 0.263455 55.231 0.131728 C85.7941 0 110.676 24.6691 110.809 55.2322 C110.809 55.3763 110.809 55.5193 110.809 55.6634 C110.746 86.0756 86.1206 110.721 55.7084 110.809 Z" transform="translate(370.49, 293.301)"/>
    </g>
    <path style="fill:#ffffff; fill-rule:evenodd;stroke:none;" d="M97.859 80.2773 L103.361 112.526 C103.929 115.838 101.704 118.982 98.3927 119.548 C97.0743 119.774 95.7176 119.559 94.5343 118.937 L65.5689 103.718 C63.8001 102.789 61.688 102.789 59.9192 103.718 L30.9031 118.937 C27.9274 120.496 24.2514 119.348 22.6921 116.372 C22.0717 115.189 21.8589 113.834 22.0852 112.517 L27.6189 80.2824 C27.9578 78.311 27.307 76.299 25.876 74.9007 L2.44878 52.0043 C0.0450351 49.6568 0 45.8058 2.34745 43.4026 C3.28193 42.4461 4.50576 41.8241 5.82867 41.6327 L38.2067 36.9333 C40.1871 36.6456 41.8995 35.4027 42.7856 33.6086 L57.2937 4.24681 C58.7821 1.23509 62.4299 0 65.4416 1.48841 C66.6384 2.08006 67.6078 3.04944 68.2 4.24681 L82.7036 33.6086 C83.5896 35.4027 85.3021 36.6456 87.2825 36.9333 L119.661 41.6327 C122.985 42.1157 125.289 45.2017 124.806 48.5264 C124.614 49.8488 123.992 51.0709 123.036 52.0043 L99.6041 74.9052 C98.1754 76.3007 97.5224 78.3087 97.859 80.2773 Z" transform="translate(223.134, 132.894)"/>
   </g>
  </g>
 </g>
</svg>
